<svg xmlns="http://www.w3.org/2000/svg" viewBox="0 0 82.16 50.77"><defs><style>.cls-1{fill:#fff;}.cls-2{fill:none;}.cls-3{fill:#d42027;}</style></defs><g id="Layer_3" data-name="Layer 3"><rect class="cls-1" width="82.16" height="50.77"/></g><g id="Layer_1" data-name="Layer 1"><path class="cls-2" d="M31.14,30.64c5.59,6.94,17,20.13,17,20.13s.68-27.44.68-41.07C47.47,10.61,35.88,24.46,31.14,30.64Z"/><path class="cls-2" d="M59.23,9.86V40.69l12.81,0c0-10.32-.51-19.86-.51-30.78Z"/><path class="cls-2" d="M20.5,10.42v15.4l1,.33c3.88-5.11,7.77-10.21,12-15.73Z"/><path class="cls-2" d="M20.52,50.77h13L20.52,34Z"/><path class="cls-2" d="M72,40.64l.49,10.12h9.63v-10S75.47,40.43,72,40.64Z"/><path class="cls-3" d="M48.77,9.7c0-3.29.2-6.42.23-9.7H0V10H9.73V20H0V50.77H20.52V34l13,16.75H48.09s-11.36-13.19-17-20.13C35.88,24.46,47.47,10.61,48.77,9.7ZM20.5,25.82V10.42h13c-4.2,5.52-8.09,10.62-12,15.73Z"/><path class="cls-3" d="M59.23,9.86V9.71H59.1v.15Z"/><path class="cls-3" d="M59.23,9.86h12.3c0,10.92.51,20.46.51,30.78,3.43-.21,10.12.14,10.12.14V0H59c0,3.24.06,6.47.1,9.71h.13Z"/><path class="cls-3" d="M59.23,40.69V9.86H59.1V9.71H48.77c0,13.63-.68,41.07-.68,41.07H72.53L72,40.64Z"/></g></svg>