<?xml version="1.0" encoding="UTF-8"?>
<svg id="Layer_2" xmlns="http://www.w3.org/2000/svg" viewBox="0 0 851.56 228.22">
  <g id="Layer_1-2" data-name="Layer_1">
    <path d="M52.86,220.32c-4.73-.63-7.06-3.58-8.62-7.26-2-4.74-4.44-9.18-7.54-13.31-2.93-3.9-3.72-8.42-2.77-13.21.31-1.55.71-3.09,1.12-4.83-2.49-.72-4.8-.11-7.11.23-2.23.33-4.45.8-6.46-.87-.1-1.72,1.32-2.37,2.44-3.17,1.12-.8,2.35-1.45,4.02-2.47-3.65-2-6.81-3.73-10.5-5.75,2.52-1.23,4.54-2.22,7.4-3.62-1-.6-1.52-.91-2.2-1.31.51-.43,1.06-.88,1.77-1.47.23-2.22.47-4.59.74-7.19-3.57-1.92-5.03-5.2-5.8-8.92-.13-.62-.4-1.22-.56-1.83-.89-3.31-2.24-6.33-5.49-8.13.8-1.86,3.01-1.99,3.8-3.83-.46-2.39-2.39-4.3-3.21-7.07.9-2.4,1.89-5.05,2.96-7.92-.93-.54-1.72-1.01-2.57-1.5.07-.2.11-.55.24-.59,2.26-.72,3.32-2.13,3.29-4.61-.03-2.38.38-4.76.58-7.14.12-1.42.21-2.84.32-4.42-.96-.44-1.78-.91-2.65-1.19-4.11-1.31-8.24-2.54-12.35-3.84-1.02-.32-1.97-.82-2.97-1.24.78-2.05,2.5-2.66,3.97-3.59,1.07-.68,2.19-1.34,3.12-2.19.8-.73,1.55-1.66.92-3.24-.52.28-.99.55-1.48.79-.41.21-.84.41-1.57.76-1.82-2.39-3.63-4.76-5.71-7.48,1.07-.38,1.72-.75,2.41-.83,1.71-.19,3.44-.25,5.3-.37-.09-.81-.16-1.41-.26-2.29,1.04-.18,2.09-.37,3.31-.58-.22-.64-.43-1.26-.72-2.13,1.08-1.02,2.22-2.1,3.5-3.31,0-2.17.05-4.39-.01-6.61-.06-2.44-.98-4.27-3.51-5.14-1.31-.45-2.5-1.27-3.77-1.93.33-2.25,1.61-2.99,3.34-2.99,1.43,0,2.86.3,4.29.36.72.03,1.45-.19,2.5-.35-1.28-3.81-3.7-6.68-5.18-10.46,1.02.12,1.79.08,2.45.32,2.77,1.03,5.04.02,7.06-1.72,1.81-1.56,3.48-3.28,5.32-5.03-.47-.88-.91-1.71-1.54-2.91.93-2.05,1.97-4.34,3.04-6.71h4.99c-3.16-2.47-6.19-3.86-8.99-5.58-2.7-1.66-5.47-3.23-8-4.72-.22-1.65.75-2.11,1.62-2.33,1.06-.27,2.2-.29,3.31-.26,1.25.03,2.5.24,3.68.36,1.05-1.22.33-2.28.04-3.26-.95-3.2-2.01-6.37-3-9.48,1.49-1.21,2.65-.04,3.84,0,1.27.04,2.56.21,3.78.55,3.77,1.07,4.82,2.91,3.96,6.75-.14.61-.34,1.22-.59,2.12,1.83,2.22,3.72,4.52,5.8,7.05-1.68,1.13-3.09,2.09-4.73,3.2.52,1.89,2.07,3.08,3.15,4.54,1.62,2.18,3.29,4.33,3.03,7.51-1.1.45-2.22.9-3.67,1.49,3.29,4.14,6.44,8.11,9.64,12.14-1.59,1.45-3.77-.15-5.1,1.9,1.97,2.94,5.53,4.47,7.83,7.49-1.91,1.59-4.32,1.4-6.51,2.62.32.62.51,1.38.98,1.84,2.78,2.65,5.63,5.21,8.44,7.83.66.62,1.21,1.34,2.1,2.32-1.97.99-3.76.65-5.41.94-1.56.28-3.13.57-5.12.93.59.86.86,1.6,1.39,1.99,3.85,2.86,7.76,5.64,11.64,8.46,1,.73,1.95,1.53,3.28,2.58-4.25,1.55-8.3.77-11.99,1.44-.91,1.36-.02,1.97.78,2.46,4.37,2.66,8.77,5.26,13.15,7.9,1.35.81,2.66,1.68,3.96,2.51-2.52,4.72-5.68,5.3-13.03,2.46-.89.67-1.88,1.41-3.06,2.3,2.71,2.59,6.03,3.86,8.97,5.7,2.97,1.85,6.03,3.56,9.04,5.33.25,2.02-.7,3.27-2.02,4.21-1.33.95-2.9,1.44-4.54.91-1.81-.58-3.59-1.28-5.37-1.93-.48,2.4.12,4.1,2.17,5.38.93.58,2.05.87,3.05,1.35,2.58,1.23,5.23,2.37,7.71,3.78,3.94,2.25,4.76,2.2,8.19-1.24-.36-1.16-1.22-2.46-.95-3.45.34-1.27,1.59-2.3,2.65-3.71-.58-3.76,1.42-6.93,3.96-10.3.55.81,1.07,1.37,1.35,2.02,1.23,2.95,2.64,5.86,3.5,8.92,1.02,3.66,1.75,7.44,2.19,11.22.25,2.12.77,4.04,1.6,5.95,1.13,2.61,2.2,5.26,3.25,7.79-.77.88-1.36,1.55-2,2.28,1.16,1.43,2.45.77,3.62.53,5.54-1.14,9.48-4.85,13.73-8.3-2.82-1.98-6.26-.71-9.03-2.72,2.23-3.8,6.38-5.4,9.05-8.94-1.82-1.21-3.62-2.41-5.7-3.79.65-.72,1.17-1.45,1.83-2,1.46-1.23,2.99-2.37,4.82-3.8-1.96-1.12-3.66-2.09-5.75-3.28,2.25-1.83,4.18-3.4,6.11-4.97-3.18-3.22-3.16-3.59.04-6.26,1.44-1.2,2.87-2.42,4.52-3.82-1.4-1.33-2.52-2.41-3.84-3.67,1.82-1.84,3.57-3.61,5.47-5.53-.46-.64-.88-1.09-1.15-1.62-1.13-2.19-1.03-2.98.5-4.72.84-.95,1.69-1.89,2.52-2.85.09-.11.08-.3.12-.46q-1.3-4.78,1.74-9.08c.83-1.17,1.71-2.29,2.75-3.67,2.64,2.59,5.06,5.3,5.26,8.85.22,3.71,1.32,6.8,3.9,9.53-1.08,1.21-2.02,2.25-2.97,3.31,1.21,2.98,4.17,4.67,4.96,7.96-.8.71-1.6,1.42-2.51,2.23,1.62,2.67,3.26,5.38,4.87,8.05-.56.68-.95,1.16-1.46,1.78.82,2.24,3.2,3.4,4.41,5.79-1.35.68-2.69,1.36-4.37,2.21,2.53,2.95,5.53,5.05,8.07,7.88-1.87,2.09-4.62.96-6.59,2.15-.47,1.02.38,1.41.97,1.85,2.57,1.9,5.19,3.74,7.74,5.66.84.63,1.55,1.45,2.58,2.42-2.95,1.67-5.98.09-8.95,1.38.46.58.72,1.16,1.16,1.41,3.58,1.96,6.74,4.9,11.23,5,.62-1.85-1.66-2.24-1.56-3.89,1.93-1.85,3.97-3.82,6.16-5.92-1.2-1.21-2.19-2.2-3.47-3.48,1.76-1.4,3.36-2.67,4.69-3.73-.18-.91-.14-1.29-.31-1.5-1.56-2.02-1.24-3.79.56-5.49.91-.86,1.69-1.85,2.68-2.95-.71-.83-1.29-1.51-1.87-2.18-.16-.98,2.21-4.87,5.37-8.83,1.78,1.98,4.32,7.87,7.12,16.56-.24.41-.52.98-.88,1.48-.89,1.24-.65,2.43.21,3.52,1.07,1.37,2.23,2.67,3.47,4.14-.76,1.18-1.43,2.2-2.13,3.29.16.4.3.86.51,1.27.15.28.4.5.61.73q3.03,3.36,2.11,7.74c1.42,1.09,2.9,2.24,4.65,3.58-1.63.8-3.01,1.48-4.41,2.17,0,1.48,1.19,1.9,1.9,2.64.78.8,1.63,1.53,2.49,2.25.85.71,1.75,1.37,2.67,2.09-1.87,1.93-4.01,1.29-5.72,2.01,1.18,2.88,2.16,3.32,4.32,1.73,1.79-1.32,3.42-2.84,5.41-4.52-1.68-1.34-3.14-2.5-4.66-3.72,1.04-2.28,3.5-3.18,5.01-5.12-.57-1.93-3.03-1.49-4.03-3.3.27-.99,1.39-1.35,2.17-2.02.83-.7,1.66-1.4,2.59-2.19-.8-1.02-1.47-1.88-2.34-2.98,2.17-2.05,4.34-4.1,6.64-6.27-1.2-1.14-2.22-2.11-3.53-3.36,1.57-1.35,3.01-2.58,4.42-3.79-.05-1.92-1.26-3.59-.2-5.3.92-1.48,1.8-2.99,2.65-4.39-1.48-3.21-1.46-3.19.21-5.65,1.33-1.97,2.59-3.99,3.89-6,.37.33.72.49.83.75,2.19,5.31,4.35,10.63,6.53,15.99-.6,1.05-1.15,2.01-1.77,3.08.2,2.29,2,3.37,3.86,4.71,1.75-.62,3.21-1.64,4.79-3.36-1.79-.89-3.27-1.63-5.15-2.57,2.02-1.65,3.72-3.04,5.59-4.57-.85-.98-1.64-1.9-2.57-2.97,2.27-2.09,4.46-4.12,6.85-6.32-1.13-1.19-2.08-2.2-3.24-3.42,1.46-1.44,2.89-2.87,4.53-4.49-.38-.57-.7-1.07-1.03-1.56-1.04-1.57-.79-2.97.47-4.32,1.06-1.14,2.59-1.95,2.82-3.85-.57-.45-1.18-.94-1.51-1.2-.41-1.44,3.06-6.71,6.03-9.57,1.13,2.9,2.21,5.67,3.29,8.45.69,1.79,1.33,3.6,2.06,5.37.68,1.65,1.3,3.17.09,4.95-.77,1.13-.33,2.49.59,3.54.63.72,1.35,1.36,1.99,2.08,1.46,1.65,1.42,2.04-.23,3.98-.2.23-.36.48-.63.86,1.07,1.7,2.09,3.51,3.31,5.17,1.01,1.37.8,2.63,0,4.15,1.09,1.27,2.22,2.58,3.57,4.13-1.23.84-2.35,1.61-3.59,2.45,2.02,2.77,5.03,4.45,7.18,7.65-2.31.35-4.14.63-6.38.96.51.7.81,1.37,1.33,1.78,2.98,2.4,5.86,4.95,9.34,6.64,1.97-.49,3.53-1.46,4.89-2.68-.85-2.25-3.57-1.62-4.57-3.67,1.56-1.23,3.16-2.49,5.03-3.97-.7-.95-1.4-1.9-2.17-2.95.18-.33.31-.84.63-1.13,1.87-1.73,3.79-3.42,5.91-5.31-1.18-1.16-2.25-2.2-3.54-3.46,1.69-1.49,3.21-2.83,4.7-4.15q-2.11-4.19.81-7.46c.21-.24.45-.46.65-.7,1.16-1.39,1.12-1.64-.74-3.66,1.17-3.26,3.46-5.89,5.63-9.14,2.05,2.73,2.64,5.69,3.77,8.37,1.18,2.8,2.21,5.65,3.32,8.51-.42.71-.84,1.39-1.23,2.08-.53.94-.41,1.89.23,2.69.79,1,1.73,1.88,2.55,2.85,1.04,1.25.99,1.85-.16,3.8-.16.27-.28.55-.58,1.17,1.31,2.09,2.74,4.35,4.13,6.57-.47.83-.85,1.51-1.29,2.3,1.23,1.42,2.48,2.86,3.74,4.31-.38,1.79-2.52,1.14-3.18,2.43,2.16,3.62,4.26,4.39,7.71,2.37,4.8-2.82,9.47-5.89,14.13-8.81-.22-1.44-1.22-1.08-1.88-1.17-2.84-.38-5.7-.67-8.54-1.01-.12-.01-.21-.2-.53-.53.04-1.74,1.77-2.31,2.86-3.3,1.3-1.18,2.73-2.22,4.08-3.35,1.2-1,2.37-2.03,3.91-3.35-2.57-1.47-4.74-2.71-7.19-4.11.66-.7,1.19-1.41,1.86-1.94,1.86-1.47,3.94-2.66,5.85-4.59-1.22-.84-2.44-1.07-3.54-1.52-1.02-.42-2.06-.8-3.37-1.31,2.16-2.45,5.05-3.62,7.38-5.91-.94-1.05-1.84-2.04-2.77-3.07,1.71-3.34,4.85-5.17,7.42-7.86-1.41-1.3-2.67-2.47-4.07-3.76,1.36-2.61,4.36-3.68,5.88-6.05q-2.88-4.55.9-8.41c.55-.57,1.04-1.2,1.5-1.84.18-.24.2-.6.39-1.23-.51-.37-1.11-.8-1.71-1.23-.94-.69-1.08-1.64-.47-2.51,2.1-2.96,4.28-5.85,6.68-9.1.68.99,1.24,1.7,1.67,2.47,1.33,2.37,2.67,4.73,3.85,7.18.29.61.16,1.59-.11,2.28-.76,1.94-.04,3.41,1.18,4.81.93,1.07,1.86,2.15,3.2,3.71-1.32.9-2.49,1.71-3.73,2.56,1.34,3.56,5.1,5.47,4.99,9.6-.77.58-1.61,1.22-2.49,1.89,1.73,3.19,5.36,5.05,6.44,8.93-.87.97-1.69,1.89-2.51,2.8.13.28.19.67.41.81,1.35.85,2.76,1.61,4.09,2.48.49.32.81.88,1.27,1.39-1.44,2.1-3.91,1.58-5.88,2.88.5.56.9,1.19,1.46,1.57.9.62,1.91,1.09,2.97,1.67,3.81-2.79,7.38-5.67,11.29-8.94-2.71-1.47-4.97-2.71-7.6-4.14,2.88-2.31,5.45-4.38,8.26-6.64-2.43-1.04-4.44-1.9-6.87-2.93,2.39-1.93,4.48-3.62,6.8-5.49-.57-.99-1.17-1.87-1.61-2.83-.64-1.38-.4-2.51.82-3.39,1.16-.84,2.51-1.42,3.65-2.29.83-.62,1.45-1.52,2.35-2.49-1.5-1.4-2.75-2.57-4.25-3.98,1.48-2.43,4.24-3.7,5.81-5.72.46-1.08-.36-1.31-.71-1.76-1.98-2.52-1.94-3.43.25-5.71,1.32-1.37,2.61-2.77,4.07-4.33-1.31-.86-2.4-1.57-3.72-2.43,2.43-3.44,4.71-6.67,7.19-10.18,2.97,2.75,5.71,5.76,5.78,9.58.08,4.18,1.4,7.4,4.35,10.37-1.31,1.16-2.47,2.19-3.66,3.25,1.27,3.25,4.62,5.05,5.45,8.64-.93.88-1.83,1.73-2.92,2.76,2.16,2.72,4.35,5.45,6.74,8.46-.95.68-1.78,1.27-2.79,1.99,1.1,2.45,3.62,3.89,5.11,6.5-1.46,1.03-3.31.94-5,1.99,2.52,3.4,6.29,5.62,9.12,9.41-2.74.53-4.99.96-7.64,1.47,1.93,3.61,4.54,5.73,7.97,6.78,1.37.42,2.85.23,4.16-.6,1.49-.94,2.87-1.96,3.79-3.78-.9-.95-1.77-1.85-2.71-2.84.14-.38.19-.92.48-1.21,1.46-1.47,2.99-2.87,4.54-4.33-.54-.74-1.08-1.34-1.46-2.02-.93-1.66-.84-2.43.42-3.89.41-.48.9-.91,1.39-1.32,1.09-.95,1.48-2.15.95-3.45-.98-2.41-.09-4.34,1.33-6.19,1.25-1.62,2.16-3.53,4.06-4.87,2.79,4.83,3.59,10.36,6.39,15.18,3.33-2.14,6.6-4.04,9.47-7.01-2.33-.99-4.36-1.86-6.72-2.86.51-.66.85-1.32,1.38-1.75,1.47-1.21,3.03-2.33,4.45-3.41.04-.47.2-.86.07-1.05-2.96-4.57-1.28-5.07,1.64-7.41,1.24-.99,2.47-2,3.87-3.13-.44-2.17-2.45-3.34-3.3-5.41,1.29-2.71,4.6-3.7,6.2-6.45-.77-.83-1.56-1.58-2.22-2.44-.93-1.21-.92-2.31.11-3.47,1.26-1.42,2.64-2.74,4.12-4.25-.37-.64-.59-1.22-.98-1.65-1.48-1.63-1.26-3.31.1-4.72,2.61-2.69,4.43-5.83,5.87-9.66.77.64,1.43,1.01,1.83,1.57,1.59,2.2,3.07,4.49,4.64,6.7,1.2,1.7,1.62,3.43.65,5.38-.35.7-.58,1.45-.77,1.95.47,2.05,2.06,2.72,3.18,3.82,1.96,1.93,2.02,2.89.24,4.87-.53.58-1.18,1.05-2,1.77,2.29,2.11,4.48,4.11,6.81,6.25-1.19,1.8-2.23,3.37-3.39,5.12,1.77,2.87,5.11,4.14,7.4,6.91-.88,1.34-1.81,2.74-2.87,4.36,2.33,1.82,4.52,3.54,7.09,5.55-2.49,1.24-4.58,2.28-6.92,3.44,2.32,2.51,5.03,4.18,7.72,5.85,1.43.89,3.12.02,3.02-1.65-.17-2.63.99-4.6,2.39-6.59,1.09-1.55,2.04-3.2,3.05-4.81,2.34,1.63,3.12,2.63,5.62,7.36-.46,1.07-.96,2.23-1.49,3.44.17.43.27.91.52,1.29,1.12,1.72,3.39,2.51,3.94,5.12-.59.97-1.32,2.18-2.23,3.66,1.63,1.47,3.37,3.04,5.31,4.79-1.06,1.26-2.05,2.43-3,3.56,3.62,6.15,5.76,5.28,10.06,2.56,1.62-1.03,3.29-1.97,4.9-3.02.49-.32.84-.86,1.33-1.37-2.31-1.97-5.12-1-7.43-1.97-.61-.92.05-1.46.62-1.99,2.57-2.39,5.15-4.76,7.67-7.08-.37-1.44-1.56-1.11-2.3-1.5-.69-.37-1.5-.49-2.48-.79,1.07-2.84,4.03-4.12,5.18-6.84-.84-.42-1.66-.83-2.78-1.39,1.48-3.42,4.5-5.73,6.22-8.86-.13-.29-.18-.62-.38-.79-2.66-2.39-2.74-2.86-.66-5.4,1.29-1.58,2.62-3.12,4.04-4.8-1.27-1.17-2.31-2.12-3.61-3.3.9-1.15,1.72-2.27,2.61-3.32,1.29-1.53,2.29-3.08,1.32-5.21-.24-.53-.15-1.24-.13-1.86.01-.3.2-.6.36-.88,1.48-2.65,2.96-5.3,4.48-7.93.22-.37.67-.61,1.19-1.07,2.74,3,5.06,6.15,7.05,9.88-1.16.8-2.14,1.48-3.35,2.32.5.9.82,1.79,1.39,2.46.72.85,1.67,1.48,2.46,2.28,1.84,1.87,1.94,2.8.61,5.06-.32.54-.75,1.02-1.3,1.77,2.05,1.95,4.08,3.87,6.29,5.96-1.48,1.32-2.76,2.46-4.2,3.75,2.3,3.09,5.67,4.86,8.19,7.97-1.1.96-2.11,1.85-3.09,2.7.08.39.04.8.21.95,2.07,1.71,4.16,3.38,6.62,5.35-2.45.99-4.42,1.79-6.81,2.76,2.8,2.41,5.28,4.55,8.08,6.96-2.65,1.26-4.91,2.34-7.2,3.42,1.84,2.49,6.89,7.03,9.2,8.18.68.33,1.52.46,2.28.45.61,0,1.24-.29,1.81-.56.67-.32,1.29-.75,2.15-1.26-1.78-1.96-4.1-1.58-6.14-2.67.49-.6.85-1.27,1.4-1.68,1.64-1.25,3.36-2.4,4.92-3.49-.04-2.46-2.35-1.39-3.28-2.67,1.49-3.24,4.55-5.55,6.32-8.91-.44-.56-.86-1.01-1.2-1.51-1.42-2.1-1.4-2.83.07-4.67.2-.25.43-.47.64-.71q3.46-3.98.08-8.02c.89-1.02,1.78-2.09,2.72-3.12,1.16-1.27,1.8-2.72,1.18-4.39-.57-1.55-.08-2.75.66-4.05,1.5-2.63,2.88-5.33,4.48-8.31.75.6,1.44.95,1.85,1.5,1.8,2.43,3.52,4.92,5.3,7.43-.4.77-.67,1.31-.97,1.85-1.34,2.39-1.32,2.81.26,4.62.21.24.46.44.68.68,3.19,3.46,3.21,3.62.59,8.08,1.86,1.81,3.77,3.68,5.89,5.76-1.31,1.32-2.5,2.52-3.87,3.9.99,1.73,2.66,2.72,4.02,3.99,1.25,1.18,2.55,2.31,3.99,3.61-1.3,1.27-2.39,2.34-3.58,3.5,2.45,1.87,4.72,3.61,7.4,5.66-2.38,1.02-4.33,1.86-6.56,2.82,1.87,2.98,5.36,4.04,7.39,6.91-2.29,1.26-4.49,2.46-6.93,3.8,3.19,3.76,7.38,6.17,10.94,9.8-.89.44-1.5.89-2.19,1.05-2.02.48-4.07.81-6.09,1.28-.73.17-1.39.58-2.42,1.02,4.98,3.99,10.65,6.27,15.57,10.25-3.38,1.91-7.19,1.41-10.01,3.17-.53,1.95.2,3.2,1.42,4.05,2.43,1.69,5.11,2.64,8.13,1.74,2.12-.63,4.24-1.29,6.11-2.8-1.06-3.01-4.02-1.41-5.73-2.59,0-2.09.89-3.61,2.75-4.65,1.22-.68,2.31-1.6,3.37-2.36-.13-1.42-1.19-1.06-1.8-1.39-.68-.37-1.36-.74-2.15-1.17,1.3-1.52,2.44-2.85,3.69-4.32-.16-.56-.26-1.17-.51-1.72-.7-1.52-.35-2.81.81-3.91.92-.87,1.9-1.68,2.94-2.59-1.9-4.19.48-7.2,2.52-10.42-.56-.99-1.09-1.94-1.61-2.87-.16-1.14,4.73-13.41,6.85-17.09,2.2,1.97,3.61,4.42,5.04,6.83.34.58.2,1.54.06,2.29-.14.75-.56,1.44-.92,2.32.89,1.03,1.7,1.98,2.51,2.94,1.68,1.99,1.7,2.2.44,4.64-.21.41-.43.81-.89,1.68,1.58,1.22,3.19,2.47,4.9,3.78-1.18,1.57-2.03,2.71-2.97,3.95,1.33,2.49,4.18,3.42,5.85,5.87-.55.96-1.15,2.02-1.89,3.32,1.54,1.35,3.07,2.68,4.87,4.26-1.42.98-2.66,1.84-4.12,2.84.49,1.86,1.94,2.72,3.61,3.2,1.36.39,2.48-.41,3.47-1.25,2.41-2.06,4.79-4.15,7.18-6.23-.57-1.35-1.68-.86-2.46-1.14-.88-.31-1.75-.63-2.88-1.03,2.28-2.93,5.86-3.62,8.13-5.93-.64-2.21-3.23-1.95-4.55-3.65,1.16-1.41,2.25-2.72,3.28-3.98q-.67-4.4,3.18-8.59c-.15-.58-.4-1.31-.54-2.06-.37-2.01.06-3.76,1.53-5.29,1.46-1.52,2.01-3.14.56-5.14-.43-.59-.26-1.87.04-2.68,1.85-4.93,3.81-9.83,5.88-15.1.72.63,1.38,1,1.75,1.56,1.6,2.38,3.12,4.82,4.7,7.3-.73.79-1.36,1.46-2.21,2.38.95,1.06,1.86,2.13,2.84,3.14,1.56,1.6,1.9,3.26.45,5.12-.27.34-.37.81-.68,1.5,1.61,1.29,3.21,2.57,5.23,4.19-1.6,1.14-2.64,1.88-3.7,2.64,1.5,3.14,4.6,4.39,6.19,7.07-.69.82-1.4,1.66-2.28,2.71,1.81,1.55,3.56,3.05,5.32,4.56-1.22,1.65-3.49,1.2-4.47,3.21,1.16.89,2.37,1.81,3.57,2.73,2.19-.6,3.43-1.98,4.74-3.64-.6-1.18-1.15-2.27-1.89-3.73,1.07-2.69,2.17-5.68,3.43-8.59,1.17-2.72,2-5.62,3.89-8.61,2.13,3.29,3.94,6.08,5.77,8.91-.7.87-1.26,1.58-1.79,2.24.24,1.68,1.58,2.43,2.51,3.48,1.8,2.04,1.81,2.29.44,5.04-.2.41-.35.85-.57,1.38,1.53,1.43,3.03,2.84,4.77,4.46-1.06.89-1.97,1.65-3.11,2.6.47.75.9,1.55,1.43,2.28.76,1.03,1.63,1.97,2.37,3.02,1.12,1.58,1.09,1.7.18,4.62,1.48,1.24,3.05,2.54,4.75,3.96-.76,1.89-3.03,1.55-4.27,3.05,1.07,2.21,3.79,3.04,5.22,5.29-1.06,1.67-3.21,1.97-4.5,3.61,1.13,2.01,2.97,3.3,4.71,4.63,2.06,1.57,2.66,1.38,5.37-1.19-2.05-.56-3.96-1.08-6.08-1.66,1.94-2.83,4.85-4.42,7.05-7.2-1.17-.74-2.26-1.43-3.51-2.22.63-1.74,2.32-2.65,3.08-4.27-.08-.42-.1-.91-.29-1.34-.83-1.91-.18-3.38,1.23-4.72,1.02-.97,1.95-2.03,3-3.14-.84-1.07-1.5-1.92-2.31-2.95.44-.81.8-1.68,1.35-2.4.57-.76,1.38-1.33,2-2.06,1.16-1.38,1.16-2.03.11-3.83-.23-.4-.49-.78-.88-1.4,2.12-5.4,4.27-10.89,6.56-16.74.76.66,1.43,1.04,1.83,1.61,1.56,2.22,3.04,4.49,4.68,6.95-.69.84-1.34,1.64-2.2,2.7.93,1.03,1.83,2.12,2.82,3.11,1.46,1.47,1.73,2.97.41,4.67-.28.36-.39.84-.8,1.75,1.52,1.19,3.14,2.45,4.93,3.86-1.26,1.43-2.17,2.47-3.18,3.62,1.54,2.5,4.37,3.73,6.19,6.3-.63.95-1.29,1.96-1.95,2.97.36.25.61.55.82.53.79-.08,1.59-.17,2.33-.42,3.5-1.15,6.33-3.43,10.15-5.42-3.28-1.93-6.25-1.28-8.9-2.03-.21-1.25.88-1.56,1.58-2.09,3.05-2.29,6.14-4.53,9.08-6.7-.19-1.43-1.1-1.33-1.84-1.43-1.56-.22-3.18-.12-4.82-1.13,2-3.38,5.55-5.19,7.88-8.53-1.56-.62-2.82-1.11-4.29-1.69.94-2.32,3.01-3.51,4.24-5.58-.29-.86-.98-1.9-.89-2.87.09-1.02.85-2.03,1.46-2.96.87-1.33,1.86-2.58,2.72-3.77-.08-.48-.02-.85-.19-1.06q-2.34-3.08,0-5.49c.67-.69,1.38-1.34,1.99-2.07.87-1.05,1.18-2.18.54-3.54-.39-.82-.73-1.82-.64-2.69.64-6.47,2.63-12.43,7.03-17.76,1.66,1.28,2.4,3.06,3.44,4.56,1.09,1.57,2.06,3.22,3.13,4.91-.97.75-1.82,1.41-2.62,2.03.22,1.95,1.73,2.75,2.83,3.87,2.23,2.27,2.27,2.71.51,5.78-.16.28-.31.56-.7,1.26,1.84,1.54,3.79,3.17,5.97,4.99-1.53,1.43-2.65,2.47-3.9,3.63.77,1.77,2.46,2.54,3.66,3.73,1.13,1.12,2.35,2.14,3.78,3.42-1.07,1.07-2.03,2.03-2.98,2.98.13.3.17.67.37.83,1.75,1.38,3.53,2.72,5.64,4.33-.82.55-1.37,1-1.99,1.3-1.12.54-2.29.98-3.75,1.59.78,1.61,2.15,2.17,3.17,3.06,1.07.92,2.18,1.8,3.42,2.82-1.47,2.21-4.42,2.17-5.88,4.52,3.26,2.79,6.5,5.55,10.04,8.58-3.02,2.11-6.63.86-9.18,2.83,3.93,5.23,9.91,8.22,16,7.96-1.3-3.36-.43-6.44.96-9.55,1.23-2.76,2.16-5.65,3.16-8.51.26-.74.5-1.61.37-2.35-.6-3.54.95-6.56,2.16-9.66.92-2.36,1.91-4.69,3.01-7.37.96.83,1.68,1.4,2.34,2.04q3.05,2.94,2.14,7.07c.25.35.49.76.8,1.11q2.47,2.75,1.32,6.16c2.87,3.51,4.06,3.88,7.55,1.66,2.86-1.82,5.85-3.26,9.05-4.32,2.94-.97,4.92-2.76,5.13-5.97-1.01-.9-1.62-.05-2.32.12-1.54.37-3.06.99-4.61,1.08-1.19.07-2.49-.36-3.62-.86-1.07-.47-1.09-.78-2.27-3.67,5.65-4,12.12-6.8,17.9-10.86-.38-.64-.53-1.13-.86-1.39-.61-.48-1.32-.83-2.08-1.28-4.88,2.52-9.5,2.81-13.7-1.8.93-.71,1.73-1.45,2.65-2.01,4.93-2.97,9.9-5.86,14.82-8.85.72-.43,1.24-1.19,2.17-2.11-2.38-1.12-4.49-.73-6.46-1.04-1.87-.3-3.74-.57-6.06-.92,1.58-2.13,3.64-3.07,5.34-4.41,1.76-1.38,3.64-2.61,5.41-3.97,1.72-1.32,3.76-2.29,5.24-4.35-3.37-1.56-6.77-1.18-9.86-1.79-.56-1.09.1-1.63.67-2.16,2.7-2.5,5.42-4.97,8.11-7.48.8-.75,1.53-1.56,2.43-2.48-.94-1.35-2.39-1.03-3.46-1.49-1.13-.48-2.36-.73-3.92-1.2,1.13-2.01,2.92-2.79,4.3-3.97,1.43-1.23,3.22-2.05,4.34-3.69-1.26-2.34-3.68-.42-5.42-1.83,1.21-2.18,3.07-3.94,4.56-5.96,1.4-1.91,3.23-3.5,4.23-5.58-.26-.45-.35-.81-.58-.96-2.94-1.94-3.19-2.56-1.57-5.22.99-1.63,2.24-3.11,3.38-4.65.74-1.01,1.5-2.01,2.37-3.17-1.58-1.18-2.96-2.22-4.61-3.45.48-.78.88-1.58,1.43-2.26,1.29-1.62,2.66-3.18,4.12-4.91-.35-1.66-.69-3.33-1.02-4.89,3.51-2.93,7.6-4.91,11.39-5.45,0,.93.21,1.87-.04,2.68-.94,3.05-2.04,6.06-3.04,9.09-.18.55-.19,1.15-.33,2.02,3.43.02,6.91-2.03,9.92,1.31-.6.56-1.07,1.17-1.69,1.54-4.11,2.46-8.26,4.86-12.39,7.31-.78.46-1.48,1.06-2.72,1.96,1.8.12,2.89.19,4.24.27,1.46,2.97,4.01,5.77,1.56,9.66,1.56,1.17,2.94,2.2,4.27,3.19-.06.91-.1,1.66-.16,2.65,3.17,1.1,6.71.21,10.02,1.76-.98,3.27-3.35,5.8-4.48,9.23,2.67.49,5.02.07,7.35,0,1.77-.04,2.66.74,2.81,2.74-2.18,2.06-5.79,2.59-7.43,5.96.57,1.11,1.21,2.35,1.96,3.81-.74,1.03-1.57,2.17-2.58,3.57,1.37,1.24,2.75,2.49,4.33,3.92-.25.61-.54,1.31-.83,2,3.38,1.11,6.17,3.81,9.83,3.53.72,1.12.1,1.75-.34,2.37-1.29,1.82-2.62,3.62-4.07,5.61-1.05-.42-2.03-.81-3.01-1.2-.12.26-.33.51-.34.77-.05,1.6.69,2.72,2.11,3.46,1.7.89,3.38,1.81,5.04,2.76.64.37,1.21.87,2.2,1.59-6.58,2.39-12.9,3.88-19.22,6.15.46,5.49,1.09,10.68,2.07,15.87,1.09.29,1.98.54,3.3.89-1.18.73-2.14,1.31-3.3,2.03.94,2.73,1.86,5.41,2.81,8.19-1.26,2.21-2.5,4.39-3.82,6.73,1.63,1.26,3.94,1.36,4.59,3.89-.48.45-1.02,1.37-1.78,1.62-2.15.7-2.92,2.35-3.42,4.26-.4,1.55-.77,3.11-1.04,4.68-.6,3.5-1.97,6.44-5.71,7.8.25,3.24-.13,6.43,2.03,9.12-.46.33-.93.66-1.8,1.29,2.72,1.2,4.99,2.21,7.56,3.34-3.68,2.53-7.79,3.55-11.54,5.84,2.78,2.26,7.51,2.09,7.92,6.93-4.7.58-9.2-1.63-14-.57.3,1.4.59,2.62.81,3.84.97,5.44.03,10.45-3.1,15.09-1.6,2.37-3.15,4.85-4.21,7.49-1.8,4.46-4.52,8.04-8.44,10.78-.91.64-1.73,1.4-2.69,2.19.06.63.12,1.25.16,1.86.22,2.84-.49,3.9-3.04,4.44-.62.13-1.27.15-1.91.16-4,.11-7.99.25-11.99.28-13.11.09-26.22.18-39.34.2-70.21.08-140.41.14-210.62.19-4.8,0-9.59-.1-14.39-.21-1.11-.02-2.35.04-3.3-.42-3.4-1.66-6.86-.99-10.35-.67-3.66.34-7.32.71-10.99.77-2.37.04-4.78-.32-7.12-.74-3.48-.62-6.84-1.31-10.25.55-1.16.63-2.8.49-4.23.5-8.79.1-17.59.19-26.38.21-14.71.03-29.43.07-44.14-.01-8.79-.05-17.58-.34-26.37-.48-2.4-.04-4.8,0-7.19.18-7.06.55-14.05.04-21.02-1.05-2.83-.44-5.65-.83-8.46.55-1.22.6-2.8.57-4.23.66-2.23.13-4.47.16-6.71.16-83.16,0-166.32.01-249.48-.02-3.51,0-7.01-.35-10.52-.56-3.02-.19-6.02-.71-9.08-.25-1.01.15-2.2-.21-3.17-.65-1.4-.64-2.18-1.84-1.95-3.5.11-.77.2-1.55.37-2.89ZM54.89,138.52c2.69,4.02,5.81,6.58,9.5,8.44,1.88.95,3.85,1.89,6.79,1.48-1.29-1.28-2.13-2.11-2.97-2.95,1.22-1.33,2.34-2.56,3.45-3.77-2.6-3.59-6.03-4.42-9.85-4.14-2.05.15-4.08.54-6.92.94ZM276.39,150.18c1.31,1.95,2.87,3.06,4.47,4.04.75.46,1.87.69,2.73.53,2.68-.5,5.13-1.66,7.18-3.49.43-.39.62-1.09.81-1.69.38-1.21-.27-2.32-1.52-2.44-2.36-.23-4.74-.34-7.42-.52-.11,2.55-1.55,2.93-3.6,2.67-.76-.1-1.61.52-2.65.89ZM57.5,156.94c-1.45,2.29-1.56,3.2-.24,4.13,2.34,1.64,4.75,3.18,7.2,4.65,1.28.77,2.78.7,4.17.24.6-.2,1.09-.76,2.07-1.47-2.22-.72-3.84-1.24-5.44-1.76-.17-.6-.41-1.04-.42-1.49-.03-1.92-1.06-2.89-2.84-3.27-1.53-.33-3.05-.69-4.51-1.02ZM91.03,157.05c2.24.67,3.56,1.16,4.93,1.46,2.31.51,4.39-.25,6.23-1.58,1.8-1.29,1.85-3.11.2-5.17-3.47,1.58-7.4,2.23-11.37,5.29ZM747.98,151.71c-.71,3.41-.19,4.62,2.39,5.98,3.41,1.79,5.94,1.39,9-1.55-3.62-2.09-7.44-3.38-11.39-4.42ZM326.57,122.24c2.05,2.39,3.19,2.94,5.54,1.69,2.35-1.25,4.44-2.99,6.61-4.56.62-.45,1.25-1.02.54-2.05-2.09-.02-4.25-.7-6.59-.02.28,1.2.53,2.23.81,3.4-2.35.67-4.95-.23-6.92,1.54ZM239.86,146.55c2.2,1.75,4.16,3.55,6.58,4.64.94.42,2.15.41,3.21.31.87-.08,1.8-.47,1.99-1.58-4.24-4.59-6.64-5.33-11.78-3.38ZM448.26,102.88c1.78-1.31,2.97-3,3.62-5.59-3.31-.26-6.28-.5-9.26-.69-.2-.01-.43.39-.64.6,1.38,2.4,1.44,2.46,6.28,5.68ZM400.07,97.33c.02,2.2.25,2.9,1.23,3.93,1,1.04,2.28,1.31,3.46.5,1.96-1.35,3.67-2.96,5.18-5.64-3.68.45-6.78.83-9.86,1.21ZM141.2,152.1c1.36,2.13,2.5,3.17,3.84,3.98,2.46,1.47,4.62.19,5.12-3.14-2.67-.25-5.33-.5-8.96-.84ZM372.47,117.39c1.35,2.22,2.77,3.35,4.8,3.2,1.91-.14,3.5-1.05,4.59-3.4-3.25.03-6.01-.18-9.39.19ZM291.23,159.61c-3.03-.32-5.5.54-8.04,2.1,1.32,1.54,2.64,2.55,4.34,2.01,1.81-.57,3.44-1.6,3.7-4.11ZM251.37,160.99c-4.08-2.62-6.91-3.6-9.77-3.51,3.52,3.75,5.03,4.34,9.77,3.51Z"/>
  </g>
</svg>